HIERARCHY
ROOT Hips
{
	OFFSET 0.000000 0.000000 0.000000
	CHANNELS 6 Xposition Yposition Zposition Zrotation Yrotation Xrotation 
	JOINT LeftUpLeg_virtual
	{
		OFFSET 0.000000 0.000000 0.000000
		CHANNELS 3 Zrotation Yrotation Xrotation
		JOINT LeftUpLeg
		{
			OFFSET 10.205400 -3.823500 0.155100
			CHANNELS 3 Zrotation Yrotation Xrotation
			JOINT LeftLeg
			{
				OFFSET 0.708757 -12.982077 0.567790
				CHANNELS 3 Zrotation Yrotation Xrotation
				JOINT LeftFoot
				{
					OFFSET -0.708756 -10.717838 -2.184338
					CHANNELS 3 Zrotation Yrotation Xrotation
					JOINT LeftToeBase
					{
						OFFSET 0.108149 -7.191104 7.560241
						CHANNELS 3 Zrotation Yrotation Xrotation
						End Site
						{
							OFFSET 0.000000 0.000000 0.000000
						}
					}
				}
			}
		}
	}
	JOINT RightUpLeg_virtual
	{
		OFFSET 0.000000 0.000000 0.000000
		CHANNELS 3 Zrotation Yrotation Xrotation
		JOINT RightUpLeg
		{
			OFFSET -10.205400 -3.823500 0.005500
			CHANNELS 3 Zrotation Yrotation Xrotation
			JOINT RightLeg
			{
				OFFSET -0.708756 -12.982134 0.610632
				CHANNELS 3 Zrotation Yrotation Xrotation
				JOINT RightFoot
				{
					OFFSET 0.708754 -10.717769 -1.945823
					CHANNELS 3 Zrotation Yrotation Xrotation
					JOINT RightToeBase
					{
						OFFSET -0.108140 -7.191069 7.372968
						CHANNELS 3 Zrotation Yrotation Xrotation
						End Site
						{
							OFFSET 0.000000 0.000000 0.000000
						}
					}
				}
			}
		}
	}
	JOINT Spine_virtual
	{
		OFFSET 0.000000 0.000000 0.000000
		CHANNELS 3 Zrotation Yrotation Xrotation
		JOINT Spine
		{
			OFFSET 0.000000 6.876099 0.125700
			CHANNELS 3 Zrotation Yrotation Xrotation
			JOINT Spine1
			{
				OFFSET 0.000000 8.022060 0.146608
				CHANNELS 3 Zrotation Yrotation Xrotation
				JOINT Spine2
				{
					OFFSET 0.000000 9.168068 0.167552
					CHANNELS 3 Zrotation Yrotation Xrotation
					JOINT Neck_virtual
					{
						OFFSET 0.000000 0.000000 0.000000
						CHANNELS 3 Zrotation Yrotation Xrotation
						JOINT Neck
						{
							OFFSET 0.000000 10.314075 0.188496
							CHANNELS 3 Zrotation Yrotation Xrotation
							JOINT Head
							{
								OFFSET 0.000000 7.643700 -2.377400
								CHANNELS 3 Zrotation Yrotation Xrotation
								End Site
								{
									OFFSET 0.000000 0.000000 0.000000
								}
							}
						}
					}
					JOINT LeftShoulder_virtual
					{
						OFFSET 0.000000 0.000000 0.000000
						CHANNELS 3 Zrotation Yrotation Xrotation
						JOINT LeftShoulder
						{
							OFFSET 4.392200 8.824978 0.174984
							CHANNELS 3 Zrotation Yrotation Xrotation
							JOINT LeftArm
							{
								OFFSET 8.771219 -2.981674 -0.026999
								CHANNELS 3 Zrotation Yrotation Xrotation
								JOINT LeftForeArm
								{
									OFFSET 8.512804 0.000000 -0.000000
									CHANNELS 3 Zrotation Yrotation Xrotation
									JOINT LeftHand
									{
										OFFSET 18.484802 0.000000 -0.000000
										CHANNELS 3 Zrotation Yrotation Xrotation
										End Site
										{
											OFFSET 0.000000 0.000000 0.000000
										}
									}
								}
							}
						}
					}
					JOINT RightShoulder_virtual
					{
						OFFSET 0.000000 0.000000 0.000000
						CHANNELS 3 Zrotation Yrotation Xrotation
						JOINT RightShoulder
						{
							OFFSET -4.392200 8.824993 0.141379
							CHANNELS 3 Zrotation Yrotation Xrotation
							JOINT RightArm
							{
								OFFSET -8.771282 -2.981682 -0.094208
								CHANNELS 3 Zrotation Yrotation Xrotation
								JOINT RightForeArm
								{
									OFFSET -8.494598 0.000000 0.000000
									CHANNELS 3 Zrotation Yrotation Xrotation
									JOINT RightHand
									{
										OFFSET -18.483803 0.000000 0.000001
										CHANNELS 3 Zrotation Yrotation Xrotation
										End Site
										{
											OFFSET 0.000000 0.000000 0.000000
										}
									}
								}
							}
						}
					}
				}
			}
		}
	}
}
MOTION
Frames: 9
Frame Time: 0.033333
37.043873 36.600113 -1.131596 179.982438 2.757738 -179.912196 -3.685907 -0.057071 8.538588 0.555249 -10.230045 -18.220747 13.949725 11.862292 15.966011 -9.429129 6.430505 13.334905 0.000000 0.000000 0.000000 1.390174 2.332375 7.695872 4.335326 -4.450926 0.666554 -9.461922 -3.125165 6.355615 8.021820 10.086297 6.084759 0.000000 0.000000 0.000000 1.388182 2.479954 -0.405251 -3.767077 0.909293 -7.525588 0.664317 -4.341443 3.989616 0.006189 -0.022788 0.005513 0.374855 -2.588852 6.319175 1.803449 2.321477 1.008490 0.000000 0.000000 0.000000 1.486848 -1.601928 3.277970 2.110754 -2.858020 -6.217842 -10.753928 19.930919 -25.475906 -6.229792 -30.482328 -2.057663 0.000000 0.000000 0.000000 -1.855318 -0.867547 2.918772 5.582627 -2.593322 -11.995375 32.346280 -35.781886 -32.558156 0.145139 34.510446 -7.607604 0.000000 0.000000 0.000000 
37.043762 36.608250 -1.118757 -179.983749 2.875839 -179.890708 -3.681085 -0.063080 8.620724 0.651087 -10.149858 -18.306048 14.089548 12.097959 15.930588 -9.071774 6.542026 13.506943 0.000000 0.000000 0.000000 1.356270 2.358268 7.939746 4.348492 -4.066714 0.778156 -9.693463 -2.778292 6.269360 8.397863 10.221197 5.651969 0.000000 0.000000 0.000000 1.402594 2.526320 -0.360977 -3.746425 0.877411 -7.529774 0.695147 -4.328378 3.937923 0.002497 -0.028237 0.040362 0.394268 -2.559203 6.259664 1.801398 2.296260 1.051222 0.000000 0.000000 0.000000 1.507936 -1.583087 3.237010 2.074146 -2.963412 -6.145315 -10.791065 20.068989 -25.489781 -6.136646 -30.548800 -2.051065 0.000000 0.000000 0.000000 -1.840195 -0.813329 2.834331 5.616178 -2.657880 -11.783430 32.467687 -35.886961 -32.833464 0.133052 34.408376 -7.575459 0.000000 0.000000 0.000000 
37.059647 36.607533 -1.098907 179.905503 3.127147 -179.924668 -3.744564 0.127997 8.639682 0.704525 -10.120032 -18.261354 13.960278 12.117558 15.846462 -8.930833 6.471557 13.579663 0.000000 0.000000 0.000000 1.291963 2.538831 8.076935 4.345315 -3.885958 0.640269 -9.548957 -2.738926 6.179901 8.179718 10.181918 5.444793 0.000000 0.000000 0.000000 1.342413 2.626152 -0.290349 -3.752078 0.862791 -7.531352 0.693832 -4.263139 3.891858 -0.020313 -0.012389 0.033689 0.447077 -2.644731 6.179699 1.793098 2.306731 1.083422 0.000000 0.000000 0.000000 1.596303 -1.522764 3.187582 2.161870 -3.083760 -6.165969 -10.914538 20.225478 -25.569957 -6.064590 -30.662775 -2.054080 0.000000 0.000000 0.000000 -1.768451 -0.858358 2.853747 5.698185 -2.711462 -11.798034 32.550202 -36.012849 -32.944393 0.181778 34.535923 -7.436013 0.000000 0.000000 0.000000 
37.097893 36.598301 -1.065842 179.996289 3.470552 -179.940350 -3.628308 0.248986 8.869359 0.882736 -10.113792 -18.484503 13.819174 12.270342 15.799370 -8.756349 6.375836 13.608249 0.000000 0.000000 0.000000 1.388154 2.702595 8.238405 4.426418 -3.603972 0.463763 -9.671178 -2.608087 6.118604 8.121612 10.196927 5.137922 0.000000 0.000000 0.000000 1.359927 2.714612 -0.190198 -3.659691 0.856535 -7.543363 0.735834 -4.192895 3.836011 -0.034929 -0.021674 0.029666 0.410494 -2.363540 6.142580 1.695043 2.263950 1.137623 0.000000 0.000000 0.000000 1.563293 -1.359301 3.129194 2.305610 -3.163166 -6.058208 -11.135105 20.438369 -25.367283 -5.877782 -30.785985 -2.021726 0.000000 0.000000 0.000000 -1.815129 -0.623146 2.827962 5.883718 -2.976571 -11.504700 32.642311 -36.135153 -32.885742 0.071131 34.781352 -7.445948 0.000000 0.000000 0.000000 
37.167141 36.578133 -1.017973 -179.997669 3.539136 -179.949585 -3.609273 0.150208 8.855092 1.139789 -10.268665 -18.579310 13.620060 12.212748 15.939416 -8.603357 6.282171 13.477835 0.000000 0.000000 0.000000 1.350962 2.421152 8.364688 4.561978 -3.343390 0.203656 -9.544854 -2.635395 6.226976 7.902180 10.104761 4.874863 0.000000 0.000000 0.000000 1.330415 2.708001 -0.077943 -3.595065 0.811574 -7.544811 0.731956 -3.994902 3.813373 0.007382 -0.086840 0.025558 0.423729 -2.232215 6.057120 1.536433 2.208922 1.172238 0.000000 0.000000 0.000000 1.536543 -1.268226 3.113430 2.414259 -3.390893 -6.023711 -11.596998 20.632241 -25.028858 -5.628838 -30.996112 -1.989562 0.000000 0.000000 0.000000 -1.822643 -0.518271 2.756114 5.967715 -3.330972 -11.236392 32.975764 -36.354594 -32.792650 -0.002446 35.392087 -7.392294 0.000000 0.000000 0.000000 
37.270996 36.553955 -0.968431 179.998379 3.699527 -179.975403 -3.552038 0.035987 9.096663 1.516974 -10.628209 -18.853878 13.456583 12.226800 16.106764 -8.340195 6.263722 13.408261 0.000000 0.000000 0.000000 1.278476 2.218163 8.436995 4.812540 -3.056694 -0.013737 -9.478829 -2.669552 6.225739 7.775835 10.102659 4.710015 0.000000 0.000000 0.000000 1.312429 2.652710 0.026160 -3.534491 0.864128 -7.543854 0.719284 -3.863642 3.801775 0.011575 -0.075302 0.059581 0.406140 -2.092588 5.925047 1.281884 2.155473 1.275725 0.000000 0.000000 0.000000 1.510759 -1.130321 3.034468 2.518156 -3.635696 -5.924253 -12.385495 20.955005 -24.487517 -5.366450 -31.390457 -1.916421 0.000000 0.000000 0.000000 -1.862653 -0.391188 2.668068 6.207024 -3.723069 -10.824414 33.328410 -36.618946 -32.270212 -0.138953 36.162877 -7.339320 0.000000 0.000000 0.000000 
37.409267 36.526379 -0.937017 179.945049 3.637170 -179.930351 -3.535721 -0.196956 9.174977 1.969399 -10.969461 -19.069820 13.235306 12.114468 16.326736 -8.129227 6.260806 13.276801 0.000000 0.000000 0.000000 1.167861 1.997369 8.523023 5.187928 -2.831155 -0.180531 -9.519028 -2.710079 6.207657 7.638221 10.067274 4.581793 0.000000 0.000000 0.000000 1.252350 2.557490 0.134104 -3.487412 0.955101 -7.578958 0.712100 -3.877111 3.813794 0.030892 -0.040126 -0.007140 0.364313 -1.986894 5.965067 0.885553 2.099542 1.468750 0.000000 0.000000 0.000000 1.516080 -1.020046 3.097128 2.555230 -3.908930 -5.684979 -13.550364 21.489706 -23.604471 -4.900755 -32.082737 -1.860937 0.000000 0.000000 0.000000 -1.906060 -0.278401 2.762727 6.532598 -4.134390 -10.406819 33.931307 -36.996450 -31.331000 -0.354520 37.212407 -7.356447 0.000000 0.000000 0.000000 
37.581234 36.493015 -0.916252 179.886965 3.546862 -179.948697 -3.528031 -0.293113 9.358917 2.520467 -11.307663 -19.386872 12.893433 11.854740 16.549028 -7.984044 6.280610 13.198101 0.000000 0.000000 0.000000 1.097388 1.796222 8.558868 5.521055 -2.521088 -0.417121 -9.425370 -2.920322 6.573632 7.277378 9.865753 4.182690 0.000000 0.000000 0.000000 1.224763 2.409879 0.317595 -3.483972 1.062305 -7.603897 0.652939 -3.703511 3.862383 -0.004707 -0.000288 0.015620 0.392215 -2.014719 5.886377 0.398950 2.104034 1.771522 0.000000 0.000000 0.000000 1.569108 -0.890412 3.053934 2.478916 -4.154012 -5.531515 -15.312128 22.298273 -22.658874 -4.644883 -33.200235 -1.810540 0.000000 0.000000 0.000000 -1.883806 -0.116328 2.699160 7.048144 -4.559921 -9.807089 34.828371 -37.447304 -30.074785 -0.555006 38.646108 -7.234261 0.000000 0.000000 0.000000 
37.785511 36.466442 -0.907115 179.889984 3.170811 -179.943137 -3.430259 -0.497004 9.583880 3.232143 -11.563869 -19.892991 12.441401 11.600984 16.687067 -7.938766 6.366637 13.196085 0.000000 0.000000 0.000000 1.152299 1.647174 8.744462 6.019683 -2.697436 -0.558883 -9.424550 -3.230116 6.558365 6.998108 9.719227 4.056475 0.000000 0.000000 0.000000 1.191373 2.249054 0.572291 -3.458098 1.136099 -7.710945 0.627941 -3.604396 3.941453 -0.006623 -0.028439 0.017071 0.368656 -1.814865 5.863557 -0.283038 2.062030 2.218126 0.000000 0.000000 0.000000 1.578820 -0.739154 3.042991 2.250128 -4.386342 -5.202098 -17.572755 23.332336 -21.185597 -4.240978 -34.821739 -1.729265 0.000000 0.000000 0.000000 -1.904616 0.042685 2.717921 7.768612 -4.956363 -9.235288 36.062859 -38.018349 -28.483929 -0.868899 40.364932 -7.225603 0.000000 0.000000 0.000000 
